<?xml version="1.0" encoding="utf-8"?>
<!-- Generator: Adobe Illustrator 25.0.0, SVG Export Plug-In . SVG Version: 6.00 Build 0)  -->
<svg version="1.1" id="Capa_1" xmlns="http://www.w3.org/2000/svg" xmlns:xlink="http://www.w3.org/1999/xlink" x="0px" y="0px"
	 viewBox="0 0 50.9 50.9" style="enable-background:new 0 0 50.9 50.9;" xml:space="preserve">
<style type="text/css">
	.st0{fill:#1D1D1B;}
</style>
<g id="group-21svg">
	<path id="path-1_14_" class="st0" d="M-394.2,25c-0.2,0-0.4,0-0.6-0.1l-18.7-8.7c-0.5-0.2-0.9-0.8-0.9-1.4c0-0.6,0.3-1.1,0.9-1.4
		l18.7-8.7c0.7-0.3,1.6,0,2,0.7c0.3,0.8,0,1.6-0.7,2l-15.8,7.3l15.8,7.3c0.8,0.3,1.1,1.2,0.7,2C-393,24.7-393.6,25-394.2,25z"/>
	<path id="path-2_12_" class="st0" d="M49.4,46.6c-0.8,0-1.5-0.7-1.5-1.5v-18c0-6.3-5.1-11-11.2-11H3.5c-0.8,0-1.5-0.7-1.5-1.5
		s0.7-1.5,1.5-1.5h33.2c7.9,0,14.2,6,14.2,14v18C50.9,45.9,50.2,46.6,49.4,46.6z"/>
	<path class="st0" d="M1.3,15.5c-2.3-0.9-2-1.7,0.1-2.4h-397c-10.1,0-18.3,0.7-18.3,1.5s8.2,1.5,18.3,1.5H3.4
		C2.6,15.9,1.9,15.7,1.3,15.5z"/>
</g>
<g>
	<g>
	</g>
</g>
<path class="st0" d="M47.9,44v85.9c0,4.6,0.7,8.3,1.5,8.3s1.5-3.7,1.5-8.3V43.8C49.9,43.6,48.9,43.8,47.9,44z"/>
</svg>
